<?xml version="1.0" standalone="no"?>
<!DOCTYPE svg PUBLIC "-//W3C//DTD SVG 20010904//EN"
 "http://www.w3.org/TR/2001/REC-SVG-20010904/DTD/svg10.dtd">
<svg version="1.0" xmlns="http://www.w3.org/2000/svg"
 width="223.000000pt" height="223.000000pt" viewBox="0 0 223.000000 223.000000"
 preserveAspectRatio="xMidYMid meet">
<metadata>
Created by potrace 1.11, written by Peter Selinger 2001-2013
</metadata>
<g transform="translate(0.000000,223.000000) scale(0.100000,-0.100000)"
fill="#000000" stroke="none">
<path d="M1128 2205 c-2 -2 -24 -5 -50 -8 -163 -20 -409 -121 -544 -223 -25
-19 -47 -34 -49 -32 -2 2 -6 15 -8 28 -3 14 -8 32 -10 40 -3 8 -13 41 -22 73
l-16 57 -210 0 c-172 0 -211 -3 -215 -14 -3 -8 9 -71 26 -141 17 -69 33 -135
35 -147 3 -11 9 -35 15 -53 6 -18 12 -41 14 -52 3 -12 18 -74 34 -139 l30
-119 -20 -75 c-26 -96 -32 -308 -12 -435 35 -236 134 -448 279 -603 32 -35 45
-61 65 -130 l25 -87 110 -3 c73 -2 121 -8 143 -18 173 -81 417 -115 662 -92
138 13 140 14 140 64 l0 44 106 -1 c105 0 134 8 134 37 0 7 15 77 34 156 19
79 38 158 41 177 3 19 8 37 10 41 2 4 7 22 10 41 3 19 17 79 30 134 20 88 37
159 40 175 0 3 8 37 18 75 45 186 71 299 91 390 8 39 27 120 41 180 107 454
126 544 123 567 l-3 23 -227 3 c-253 3 -240 6 -252 -70 -3 -20 -20 -99 -37
-175 -17 -76 -33 -148 -35 -159 -8 -41 -83 -390 -98 -454 -8 -36 -17 -78 -20
-95 -3 -16 -14 -68 -24 -115 l-19 -85 -22 95 c-12 52 -26 113 -32 135 -31 131
-119 519 -119 525 0 8 56 6 151 -5 l56 -7 1 221 c0 139 -4 223 -10 227 -23 14
-190 32 -295 32 -62 0 -114 -2 -115 -3z m-253 -584 c-3 -11 -7 -28 -9 -38 -20
-99 -48 -243 -52 -263 -3 -14 -7 -32 -9 -40 -2 -8 -7 -31 -11 -50 -3 -19 -7
-39 -8 -45 -1 -5 -11 -54 -21 -109 -17 -85 -20 -95 -28 -70 -14 49 -16 58 -25
94 -5 19 -24 88 -41 153 l-32 117 32 60 c33 62 98 137 159 183 42 32 54 34 45
8z m276 -958 c16 -75 26 -139 24 -141 -5 -6 -78 8 -94 17 -11 7 -9 28 8 118
12 60 21 120 21 133 0 49 14 5 41 -127z"/>
</g>
</svg>
