<?xml version="1.0" standalone="no"?>
<!DOCTYPE svg PUBLIC "-//W3C//DTD SVG 20010904//EN"
 "http://www.w3.org/TR/2001/REC-SVG-20010904/DTD/svg10.dtd">
<svg version="1.0" xmlns="http://www.w3.org/2000/svg"
 width="220.000000pt" height="220.000000pt" viewBox="0 0 220.000000 220.000000"
 preserveAspectRatio="xMidYMid meet">
<metadata>
Created by potrace 1.11, written by Peter Selinger 2001-2013
</metadata>
<g transform="translate(0.000000,220.000000) scale(0.100000,-0.100000)"
fill="#000000" stroke="none">
<path d="M1098 2165 c-3 -3 -27 -8 -54 -11 -26 -3 -51 -7 -55 -9 -3 -2 -20 -7
-38 -10 -121 -21 -337 -125 -453 -218 -21 -17 -40 -28 -41 -26 -2 2 -10 27
-17 54 -7 28 -19 74 -27 103 l-14 52 -194 0 c-113 0 -196 -4 -200 -10 -3 -5
29 -145 71 -312 42 -167 77 -309 78 -317 2 -7 -6 -43 -17 -80 -26 -87 -32
-319 -12 -447 35 -226 137 -436 288 -596 26 -28 39 -54 52 -110 10 -40 22 -77
26 -83 5 -5 55 -10 112 -11 84 -2 113 -6 162 -27 80 -33 177 -59 290 -77 65
-10 343 -6 413 5 43 8 49 17 43 77 -3 21 -6 20 119 23 124 3 117 2 123 28 3
12 23 101 46 197 22 96 66 283 97 415 31 132 58 248 60 258 2 9 6 27 9 40 25
115 48 217 55 242 5 17 12 42 15 58 10 51 15 72 90 392 41 176 71 323 67 327
-5 5 -105 7 -222 6 l-214 -3 -13 -60 c-7 -33 -15 -73 -18 -90 -6 -29 -83 -384
-90 -415 -1 -5 -22 -102 -30 -137 -3 -13 -7 -31 -9 -40 -2 -10 -16 -72 -30
-138 -47 -224 -64 -297 -70 -302 -2 -3 -9 12 -15 33 -19 70 -181 782 -181 794
0 7 13 9 38 6 20 -3 64 -8 97 -12 33 -3 63 -8 68 -11 4 -2 7 6 7 19 1 46 1
354 0 375 0 22 -8 26 -65 39 -36 8 -340 15 -347 9z m-218 -523 c0 -4 -25 -131
-55 -282 -63 -312 -59 -293 -76 -382 -8 -38 -17 -68 -21 -68 -7 0 -10 8 -33
93 -8 31 -21 81 -29 110 -65 239 -64 231 -39 285 37 80 106 160 192 221 44 31
61 38 61 23z m234 -814 c11 -60 16 -83 26 -133 26 -127 42 -217 38 -220 -6 -4
-131 24 -139 32 -6 6 16 153 46 308 2 11 4 26 4 33 2 25 19 11 25 -20z"/>
</g>
</svg>
