<?xml version="1.0" encoding="utf-8"?>
<!-- Svg Vector Icons : http://www.onlinewebfonts.com/icon -->
<!DOCTYPE svg PUBLIC "-//W3C//DTD SVG 1.1//EN" "http://www.w3.org/Graphics/SVG/1.1/DTD/svg11.dtd">
<svg version="1.1" xmlns="http://www.w3.org/2000/svg" xmlns:xlink="http://www.w3.org/1999/xlink" x="0px" y="0px" viewBox="0 0 1000 1000" enable-background="new 0 0 1000 1000" xml:space="preserve" fill="#bbb">
<metadata> Svg Vector Icons : http://www.onlinewebfonts.com/icon </metadata>
<g><g><path d="M500,10C229.8,10,10,229.8,10,500c0,270.2,219.8,490,490,490c270.2,0,490-219.8,490-490C990,229.8,770.2,10,500,10z M696.4,493.9c-11.1,13-26.8,19.7-42.6,19.7c-12.8,0-25.6-4.4-36.2-13.3l-61.8-52.5v225c0,30.9-25,55.9-55.9,55.9c-30.9,0-55.9-25-55.9-55.9v-225l-61.8,52.5c-23.5,20-58.8,17.1-78.8-6.4c-20-23.5-17.1-58.8,6.4-78.8l153.8-130.7c20.9-17.7,51.5-17.7,72.4,0L690,415.1C713.5,435.1,716.4,470.4,696.4,493.9z"/></g><g></g><g></g><g></g><g></g><g></g><g></g><g></g><g></g><g></g><g></g><g></g><g></g><g></g><g></g><g></g></g>
</svg>